<svg height="120pt" preserveAspectRatio="xMidYMid meet" viewBox="0 0 120 120" width="120pt" xmlns="http://www.w3.org/2000/svg"><path d="m356 1005c-120-67-222-129-227-136-11-17-12-519-1-536 12-19 450-263 472-263s460 244 472 263c14 22 10 521-4 539-20 25-446 258-471 257-12 0-120-56-241-124zm371-76c41-16 75-38 116-79 31-31 57-61 57-66 0-6-34-29-76-53l-76-43-14 21c-23 32-88 61-136 61-120-1-201-128-154-241 46-110 192-135 282-48l32 31 67-39c38-21 70-44 72-50 7-19-96-116-152-143-42-21-65-25-145-25-89 0-99 2-158 34-71 38-130 99-164 169s-37 187-7 267 121 173 199 203c75 29 180 29 257 1z" transform="matrix(.1 0 0 -.1 0 120)"/></svg>