<?xml version="1.0" standalone="no"?>
<!DOCTYPE svg PUBLIC "-//W3C//DTD SVG 20010904//EN"
 "http://www.w3.org/TR/2001/REC-SVG-20010904/DTD/svg10.dtd">
<svg version="1.0" xmlns="http://www.w3.org/2000/svg"
 width="274.000000pt" height="274.000000pt" viewBox="0 0 274.000000 274.000000"
 preserveAspectRatio="xMidYMid meet">
<g transform="translate(0.000000,274.000000) scale(0.100000,-0.100000)"
fill="#000000" stroke="none">
<path d="M1275 2661 c-17 -16 -45 -31 -62 -35 -32 -5 -46 7 -20 18 6 3 3 4 -8
1 -11 -3 -34 -1 -51 4 -27 8 -34 5 -67 -29 -32 -33 -41 -38 -78 -36 -44 2 -69
-13 -69 -43 0 -12 -8 -17 -27 -16 -14 0 -28 -6 -31 -14 -3 -9 0 -11 8 -6 9 5
11 4 6 -4 -4 -6 -11 -9 -16 -6 -10 6 -23 -33 -24 -77 -1 -16 -6 -26 -12 -24
-7 3 -9 -5 -6 -21 4 -20 2 -24 -9 -18 -8 5 -6 -1 4 -13 11 -11 16 -25 13 -31
-4 -5 -2 -12 4 -16 7 -4 7 -13 -1 -26 -5 -11 -9 -27 -8 -37 1 -9 1 -23 0 -29
-1 -16 -53 -17 -68 -2 -7 7 -13 7 -17 1 -4 -6 4 -18 16 -26 l23 -16 -30 -25
c-17 -13 -25 -24 -18 -25 6 0 15 5 18 11 4 6 13 8 20 5 7 -2 17 0 23 6 7 7 10
2 8 -16 -4 -36 -13 -43 -36 -28 -11 7 -27 12 -35 12 -8 0 -15 8 -15 18 -1 16
-1 16 -11 -1 -8 -14 -7 -23 6 -38 10 -10 19 -35 21 -55 2 -23 15 -52 33 -74
25 -31 30 -46 29 -88 -1 -42 -5 -53 -25 -63 -13 -7 -23 -17 -23 -22 0 -5 11
-2 25 7 35 23 52 20 29 -5 -13 -15 -15 -23 -7 -26 9 -3 8 -16 -3 -51 -16 -56
-18 -74 -3 -48 10 16 14 14 37 -25 13 -24 37 -57 51 -72 l26 -29 -23 -18 -23
-19 38 -3 38 -4 -35 -17 c-21 -10 -28 -16 -17 -17 10 0 31 7 47 15 27 14 31
14 45 -2 27 -30 68 -97 69 -113 1 -8 6 -24 13 -35 6 -11 12 -24 13 -30 7 -29
55 -88 108 -134 52 -45 83 -94 69 -107 -2 -3 -24 -8 -48 -13 l-44 -9 33 -7
c17 -4 32 -11 32 -16 0 -11 2 -12 -56 6 -28 8 -75 14 -105 14 -30 -1 -68 2
-85 6 -22 5 -34 2 -43 -9 -11 -13 -11 -16 1 -16 25 0 139 -61 132 -71 -3 -5
-21 -1 -42 10 -20 10 -61 26 -91 35 -50 15 -55 15 -73 0 -21 -20 -24 -44 -4
-44 7 0 16 -8 18 -17 5 -17 35 -35 100 -61 15 -6 34 -24 42 -40 l15 -28 -57
27 c-31 15 -69 41 -85 58 -34 38 -64 40 -77 5 -14 -37 -12 -64 5 -64 9 0 35
-20 58 -45 23 -25 52 -47 64 -49 32 -7 60 -23 76 -46 10 -15 30 -23 68 -27 61
-7 110 -32 134 -69 26 -39 10 -41 -54 -6 -32 18 -67 32 -77 32 -11 0 -36 11
-57 25 -20 14 -58 35 -84 46 -27 11 -65 38 -85 59 -28 29 -44 38 -64 35 l-27
-3 6 59 c6 63 -5 75 -36 41 -31 -34 -46 -98 -42 -180 4 -94 23 -149 58 -167
14 -7 47 -29 73 -49 26 -20 53 -36 60 -36 7 0 62 -25 121 -55 59 -30 111 -55
116 -55 4 0 30 -11 59 -25 28 -14 58 -25 65 -25 8 0 33 -9 56 -19 89 -41 191
-55 407 -56 252 -2 242 -1 238 -22 -3 -15 -18 -18 -123 -20 -66 -1 -133 -3
-150 -4 -64 -4 -203 9 -260 25 -135 38 -232 70 -260 88 -16 10 -40 18 -52 18
-13 0 -23 5 -23 11 0 5 -17 17 -37 26 -21 8 -57 24 -80 34 -24 11 -54 24 -68
29 -14 5 -25 13 -25 18 0 5 -6 9 -13 9 -27 0 -147 85 -147 104 0 11 -4 19 -9
19 -5 0 -17 19 -26 43 -22 56 -22 153 2 240 7 26 -12 21 -52 -14 -21 -19 -35
-40 -35 -54 0 -13 -5 -27 -10 -30 -5 -3 -10 3 -10 15 0 29 -22 21 -34 -12 -10
-29 18 -130 43 -156 11 -11 12 -17 4 -19 -8 -3 -7 -9 3 -21 9 -9 36 -44 61
-77 56 -75 114 -112 313 -201 47 -21 91 -42 98 -48 35 -26 320 -126 377 -132
11 -1 58 -7 104 -14 62 -9 98 -10 135 -2 28 6 65 9 81 7 17 -2 55 -7 84 -10
36 -4 61 -13 72 -26 15 -17 31 -19 162 -19 139 0 148 1 183 25 50 34 124 55
215 62 70 5 81 3 165 -31 49 -20 95 -39 102 -43 8 -3 12 5 12 29 0 31 -5 36
-47 57 -89 43 -195 73 -243 68 -45 -4 -247 -97 -262 -120 -6 -9 -8 -9 -8 -1 0
24 80 95 136 121 103 47 234 38 382 -27 l42 -19 0 42 c0 42 -1 43 -42 55 -56
16 -79 19 -190 28 -165 14 -199 6 -264 -68 -26 -30 -32 -34 -19 -13 26 41 51
62 112 91 47 23 65 25 175 26 127 0 177 -5 210 -23 18 -10 19 -7 16 28 -3 33
-8 41 -40 56 -92 45 -318 20 -422 -47 l-55 -35 18 30 c41 67 149 115 282 124
72 5 94 2 152 -18 l67 -24 0 31 c0 28 -6 33 -53 53 -28 12 -65 25 -80 29 -30
7 -144 -13 -153 -27 -3 -5 -13 -9 -23 -9 -10 0 -48 -16 -85 -36 -37 -19 -71
-33 -74 -29 -21 20 188 134 261 142 29 4 69 -3 125 -20 l82 -25 0 38 c0 41 -5
45 -104 75 -72 21 -189 12 -271 -21 -67 -27 -97 -55 -198 -184 -23 -30 -58
-63 -76 -72 -19 -9 -47 -29 -62 -44 -33 -32 -35 -29 -13 26 13 32 23 42 53 50
20 5 43 10 51 10 13 0 60 56 60 72 0 3 -32 5 -70 4 -69 -1 -79 4 -61 32 6 10
26 12 83 7 75 -7 76 -6 96 22 11 15 46 46 79 68 32 22 74 51 93 66 60 46 120
62 235 63 l105 1 0 34 0 34 -109 -6 c-97 -5 -118 -9 -185 -41 -42 -19 -95 -48
-118 -64 -98 -66 -134 -87 -158 -87 -32 -1 -57 22 -41 38 18 18 13 27 -16 27
-25 0 -26 0 -8 20 10 11 31 20 47 20 28 0 28 0 12 -25 -16 -24 -16 -27 2 -40
30 -23 50 -18 78 20 l27 34 -21 21 c-17 17 -19 24 -9 36 15 18 33 18 49 -1 10
-12 10 -18 -1 -32 -9 -10 4 -6 31 11 168 102 230 120 330 97 61 -14 70 -14 70
4 0 8 5 15 10 15 6 0 10 88 10 245 l0 245 -72 -1 c-40 0 -95 -5 -123 -10 -27
-5 -135 -13 -240 -18 -172 -7 -196 -11 -254 -35 -39 -16 -83 -26 -113 -26 -46
0 -48 -1 -48 -29 0 -16 9 -50 21 -76 33 -75 29 -125 -20 -247 -31 -79 -54
-121 -89 -159 -108 -121 -288 -216 -398 -210 -24 1 -64 66 -64 104 0 14 -6 27
-12 30 -7 2 -10 7 -7 10 3 4 22 -2 42 -13 39 -21 49 -16 42 19 -2 12 0 33 5
46 8 20 6 23 -7 18 -10 -4 -14 -2 -10 4 3 5 -1 21 -11 34 -9 13 -18 33 -19 43
-4 25 7 15 12 -11 2 -10 4 -20 4 -22 1 -2 8 2 16 9 12 10 15 10 15 -4 0 -9 9
-17 20 -17 11 -1 24 -2 30 -3 15 -2 40 -42 32 -51 -4 -5 -1 -5 6 -1 8 5 18 1
26 -9 9 -12 19 -15 35 -10 22 7 24 32 2 27 -7 -1 -10 1 -8 5 3 5 -1 16 -8 26
-8 11 -16 14 -19 8 -4 -6 -13 -8 -21 -5 -8 4 -12 10 -9 15 4 8 -35 30 -58 33
-3 1 -10 5 -15 10 -5 5 -3 6 5 2 6 -4 12 -2 12 4 0 6 5 8 10 5 6 -3 10 -1 10
4 0 10 -14 15 -33 12 -5 -1 -6 3 -2 9 3 5 0 13 -9 16 -14 5 -19 44 -5 44 3 0
11 12 17 26 7 14 16 23 21 19 5 -3 16 3 23 13 7 10 28 28 46 41 17 12 32 28
32 36 0 16 51 55 72 55 7 0 25 10 40 23 15 12 43 35 63 50 19 16 33 32 30 38
-4 5 -2 9 3 9 5 0 17 16 26 35 9 19 21 37 27 41 6 3 19 26 30 51 20 47 25 80
8 50 -15 -26 -56 -39 -81 -26 -15 8 -19 8 -13 -1 4 -7 1 -11 -6 -9 -29 3 -37
-2 -32 -20 2 -10 -2 -24 -10 -32 -7 -8 -12 -20 -9 -27 2 -7 -5 -12 -17 -12
-28 0 -16 -30 13 -31 20 0 20 -1 -3 -10 -18 -7 -26 -5 -37 8 -9 12 -13 14 -14
5 0 -7 -4 -10 -10 -7 -5 3 -10 2 -10 -4 0 -5 8 -12 18 -14 10 -3 6 -5 -10 -6
-16 0 -28 -4 -28 -8 0 -5 -14 -16 -30 -25 -28 -16 -30 -16 -30 0 0 13 -2 14
-9 4 -4 -8 -14 -12 -22 -11 -8 2 -24 0 -35 -4 -16 -6 -29 0 -54 23 -35 33 -50
31 -50 -6 0 -13 -3 -24 -6 -24 -13 0 -35 32 -31 45 4 10 0 12 -16 9 -12 -3
-29 -6 -37 -6 -8 0 -20 -4 -25 -9 -7 -5 -11 -1 -12 9 -3 56 -8 71 -19 61 -8
-7 -15 -6 -20 2 -4 8 -3 9 4 5 8 -5 10 -2 6 8 -3 9 -10 14 -14 11 -5 -3 -11 1
-13 7 -4 10 -6 10 -6 1 -1 -7 -6 -13 -11 -13 -7 0 -7 6 0 19 8 16 5 21 -20 30
-36 12 -40 24 -5 15 19 -5 25 -2 25 10 0 23 14 20 36 -9 18 -24 42 -36 29 -15
-7 12 12 12 40 0 18 -8 18 -9 2 -9 -30 -1 -15 -22 25 -36 48 -16 68 -14 95 9
20 18 21 20 5 32 -9 8 -28 14 -42 15 -17 1 -20 3 -7 6 9 2 17 8 17 13 0 5 13
18 29 30 21 14 32 17 37 9 5 -8 3 -9 -6 -4 -8 5 -11 4 -6 -3 7 -11 31 -7 52 9
6 5 28 12 50 17 24 5 39 14 39 22 0 8 -6 14 -13 12 -9 -1 -12 5 -10 19 2 12
-3 24 -11 27 -9 3 -11 -1 -7 -16 9 -29 -7 -35 -94 -38 -94 -3 -148 -10 -181
-22 -20 -8 -26 -7 -26 3 0 8 4 12 9 9 4 -3 8 0 8 5 0 6 6 11 14 11 8 0 22 7
31 16 12 13 18 14 30 4 13 -11 13 -9 1 15 -13 26 -13 30 1 40 15 11 15 13 -5
24 -11 6 -29 11 -40 11 -11 0 -25 7 -32 15 -7 9 -15 13 -18 10 -3 -3 -10 0
-17 5 -8 7 -16 -5 -27 -40 -9 -28 -12 -50 -7 -50 18 0 8 -30 -13 -41 -29 -15
-37 -28 -39 -59 -1 -18 -3 -20 -6 -7 -4 15 -12 17 -39 14 -19 -3 -34 0 -34 5
0 6 8 7 18 4 10 -4 7 3 -9 17 -17 13 -33 44 -43 79 -18 63 -22 163 -6 153 6
-3 10 0 10 8 0 21 27 29 49 15 18 -11 88 -2 135 17 17 7 18 4 14 -33 -3 -40
-3 -41 14 -24 26 27 39 161 19 204 -25 51 -81 77 -156 73 -58 -4 -62 -2 -58
16 3 10 9 19 14 19 5 0 8 5 7 11 -2 7 12 21 31 32 27 16 37 18 52 9 14 -9 27
-8 56 2 21 7 43 11 50 9 7 -2 22 2 35 9 13 7 39 13 58 15 19 1 57 6 85 11 27
6 54 7 60 2 13 -11 93 -7 105 6 5 5 16 23 24 39 l16 30 0 -28 c0 -16 -5 -37
-10 -48 -17 -32 -1 -21 20 13 16 26 20 29 26 15 3 -9 10 -17 16 -17 19 0 76
-52 82 -75 3 -13 9 -31 13 -41 4 -12 3 -15 -5 -10 -7 4 -12 3 -12 -3 0 -5 5
-13 10 -16 7 -4 8 -28 4 -66 -5 -49 -4 -59 9 -59 10 0 13 -6 10 -20 -3 -11 5
-41 17 -67 l22 -47 14 24 c13 23 14 21 12 -36 -2 -35 2 -67 9 -75 11 -14 13
-19 13 -40 0 -8 6 -7 17 2 15 13 16 11 10 -11 -4 -14 -10 -59 -13 -101 -6 -74
-6 -76 17 -82 29 -8 38 -1 10 8 -18 5 -19 8 -7 20 13 13 90 45 109 45 5 0 6
-4 3 -9 -3 -5 3 -11 14 -14 12 -3 20 -14 20 -27 0 -13 4 -19 11 -14 6 4 9 20
6 39 -5 29 -3 31 17 28 32 -6 61 29 46 56 -6 12 -15 21 -20 21 -6 0 -10 5 -10
11 0 6 6 7 13 2 6 -4 -3 12 -21 35 -19 23 -38 44 -43 47 -19 12 -8 33 20 38
24 5 31 13 36 40 4 19 5 45 3 58 -3 23 0 24 54 24 32 0 58 3 58 8 1 31 -1 35
-19 30 -11 -3 -28 0 -38 7 -15 10 -14 11 12 7 24 -4 27 -3 14 6 -9 7 -14 18
-11 25 2 7 -1 19 -7 26 -8 10 -7 23 4 49 22 52 19 113 -5 137 -11 11 -20 29
-20 40 0 13 -7 20 -20 20 -13 0 -20 7 -20 20 0 23 19 26 40 8 10 -10 10 -6 -2
12 -8 14 -25 29 -36 35 -25 11 -29 25 -7 25 8 0 15 -5 15 -11 0 -5 5 -7 10 -4
15 10 40 -14 41 -39 1 -16 2 -17 6 -4 2 9 -1 26 -7 37 -7 14 -7 21 0 21 5 0
10 7 10 16 0 12 -3 14 -13 6 -17 -15 -56 -11 -50 4 2 7 0 15 -6 19 -13 8 -15
65 -2 65 6 0 12 -4 15 -9 3 -5 15 -11 26 -14 17 -4 19 -3 10 8 -7 8 -21 17
-33 21 -20 6 -20 7 3 24 27 21 21 57 -8 45 -9 -4 -28 -10 -42 -13 -20 -4 -23
-2 -12 9 17 19 15 84 -4 99 -13 12 -14 10 -3 -13 15 -33 2 -68 -36 -93 -32
-21 -38 -16 -25 22 11 33 0 88 -18 90 -7 1 -22 2 -35 3 -18 1 -23 7 -22 28 0
23 -5 28 -34 34 -19 4 -44 2 -58 -4 -30 -13 -41 -2 -24 25 14 22 13 22 -12 5
-29 -19 -41 -22 -32 -8 3 5 -7 11 -21 13 -15 2 -32 12 -38 23 -6 11 -12 22
-14 25 -2 2 -7 -2 -11 -9 -7 -11 -13 -11 -32 3 -25 17 -64 22 -55 7 3 -5 -5
-8 -19 -8 -14 0 -22 3 -19 8 3 5 -1 9 -8 9 -30 0 22 31 56 33 31 2 34 4 19 15
-28 20 -100 15 -116 -9 -12 -16 -19 -19 -34 -11 -12 7 -25 7 -34 1 -21 -13
-39 -11 -39 5 0 8 -15 16 -37 20 -55 9 -56 9 -88 -23z m-495 -1998 c14 -9 45
-34 69 -55 24 -21 49 -38 55 -38 6 0 38 -13 71 -29 258 -126 283 -135 450
-171 163 -34 433 -48 471 -24 29 19 70 10 70 -17 0 -16 -7 -19 -53 -19 -32 0
-63 -6 -78 -16 -13 -9 -29 -13 -35 -9 -6 4 -65 8 -130 10 -143 5 -332 37 -415
72 -113 47 -175 77 -175 85 0 4 -8 8 -17 8 -23 0 -173 71 -173 82 0 4 -7 8
-16 8 -9 0 -34 16 -57 35 -23 20 -52 38 -65 42 -15 3 -21 11 -18 20 3 8 6 19
6 24 0 13 13 11 40 -8z"/>
<path d="M1526 1960 c-16 -5 -53 -10 -84 -12 -38 -2 -58 -8 -67 -20 -6 -10
-14 -15 -18 -12 -3 3 -11 -4 -17 -17 -11 -19 -9 -24 11 -40 13 -10 24 -24 24
-31 0 -7 10 -17 23 -23 12 -5 22 -13 22 -18 0 -4 4 -6 9 -2 5 3 12 1 16 -5 3
-5 -2 -10 -12 -10 -15 0 -15 -2 -3 -14 8 -8 40 -17 70 -20 53 -6 54 -5 25 9
-16 8 -28 15 -25 15 3 1 18 4 35 6 16 3 32 8 35 12 9 13 60 32 85 32 16 0 23
5 19 13 -9 25 -50 41 -119 47 l-70 6 57 28 c45 21 61 25 77 17 11 -6 33 -11
50 -11 40 0 42 27 4 35 -16 3 -42 10 -59 15 -35 12 -48 11 -88 0z"/>
<path d="M462 670 c-12 -12 -22 -31 -22 -43 0 -35 44 -118 89 -169 24 -27 40
-48 36 -48 -3 0 0 -10 6 -22 8 -16 -2 -10 -30 17 -39 37 -121 180 -121 211 0
8 -6 14 -13 14 -19 0 -37 -21 -37 -44 0 -51 90 -198 163 -268 60 -58 39 -65
-24 -9 -59 52 -133 157 -153 215 -17 49 -41 32 -40 -26 2 -68 81 -186 195
-292 47 -42 57 -56 39 -51 -69 21 -176 132 -230 239 -22 43 -40 85 -40 92 0
16 -18 18 -40 4 -10 -6 -15 -24 -14 -52 1 -58 63 -160 156 -258 14 -15 35 -33
45 -39 27 -16 -4 -13 -35 3 -37 20 -71 57 -136 155 -33 49 -59 99 -62 122 -4
22 -8 39 -10 39 -2 0 -15 -5 -29 -12 -36 -16 -32 -40 24 -154 55 -112 92 -154
180 -204 65 -37 78 -54 34 -44 -102 23 -246 187 -274 311 l-12 50 -28 -14
c-34 -17 -34 -20 -14 -96 24 -93 137 -241 205 -269 14 -6 20 -12 13 -15 -21
-8 -77 29 -136 90 -61 64 -112 156 -123 225 -11 72 -24 46 -24 -50 0 -106 7
-122 93 -221 l50 -58 151 3 c147 3 153 4 238 39 l87 36 6 -39 c7 -38 7 -38 53
-38 l46 0 -46 29 c-41 26 -58 47 -58 72 0 5 17 -2 37 -16 21 -14 42 -25 47
-25 5 0 31 -13 58 -30 46 -29 54 -30 156 -30 l107 1 -95 50 c-52 27 -141 72
-196 99 -99 47 -102 50 -118 96 -18 53 -15 70 6 27 9 -20 38 -41 108 -75 52
-26 102 -52 110 -57 8 -6 74 -38 145 -73 l130 -63 205 -1 c113 -1 192 0 175 3
-108 16 -374 99 -425 133 -8 6 -26 15 -40 20 -63 27 -185 85 -190 91 -3 4 -44
25 -91 47 -67 32 -92 49 -109 77 -12 19 -25 35 -29 35 -11 0 -31 47 -31 72 0
12 -9 31 -19 42 -32 35 -61 99 -61 133 0 38 -8 41 -38 13z"/>
</g>
</svg>
